HIERARCHY
ROOT Hips
{
	OFFSET 0.000000 0.000000 0.000000
	CHANNELS 6 Xposition Yposition Zposition Xrotation Yrotation Zrotation
	JOINT Chest
	{
		OFFSET 0.000000 0.009282 11.569106
		CHANNELS 3 Xrotation Yrotation Zrotation
		JOINT Chest2
		{
			OFFSET 0.000000 -0.016863 9.269641
			CHANNELS 3 Xrotation Yrotation Zrotation
			JOINT Chest3
			{
				OFFSET 0.000000 0.000000 8.374491
				CHANNELS 3 Xrotation Yrotation Zrotation
				JOINT Chest4
				{
					OFFSET 0.000000 0.000000 8.374493
					CHANNELS 3 Xrotation Yrotation Zrotation
					JOINT Neck
					{
						OFFSET 0.000000 -0.000001 12.152554
						CHANNELS 3 Xrotation Yrotation Zrotation
						JOINT Head
						{
							OFFSET 0.000000 -0.040100 7.802319
							CHANNELS 3 Xrotation Yrotation Zrotation
							End Site
							{
								OFFSET 0.000000 -0.020946 14.853096
							}
						}
					}
					JOINT RightCollar
					{
						OFFSET -2.894404 0.000000 6.791374
						CHANNELS 3 Xrotation Yrotation Zrotation
						JOINT RightShoulder
						{
							OFFSET -13.574684 0.000000 0.000000
							CHANNELS 3 Xrotation Yrotation Zrotation
							JOINT RightElbow
							{
								OFFSET -23.923903 0.000000 0.000000
								CHANNELS 3 Xrotation Yrotation Zrotation
								JOINT RightWrist
								{
									OFFSET -19.846718 -0.012765 0.000000
									CHANNELS 3 Xrotation Yrotation Zrotation
									End Site
									{
										OFFSET -14.973145 0.000000 0.000000
									}
								}
							}
						}
					}
					JOINT LeftCollar
					{
						OFFSET 2.894404 0.000000 6.791374
						CHANNELS 3 Xrotation Yrotation Zrotation
						JOINT LeftShoulder
						{
							OFFSET 13.574684 0.000000 0.000000
							CHANNELS 3 Xrotation Yrotation Zrotation
							JOINT LeftElbow
							{
								OFFSET 23.923903 0.000000 0.000000
								CHANNELS 3 Xrotation Yrotation Zrotation
								JOINT LeftWrist
								{
									OFFSET 19.846718 -0.012765 0.000000
									CHANNELS 3 Xrotation Yrotation Zrotation
									End Site
									{
										OFFSET 14.973145 0.000000 0.000000
									}
								}
							}
						}
					}
				}
			}
		}
	}
	JOINT RightHip
	{
		OFFSET -9.469263 -0.004642 0.045487
		CHANNELS 3 Xrotation Yrotation Zrotation
		JOINT RightKnee
		{
			OFFSET 0.000000 -0.002666 -40.478676
			CHANNELS 3 Xrotation Yrotation Zrotation
			JOINT RightAnkle
			{
				OFFSET 0.000000 -0.049110 -35.224068
				CHANNELS 3 Xrotation Yrotation Zrotation
				JOINT RightToe
				{
					OFFSET 0.000000 -12.539530 -6.151390
					CHANNELS 3 Xrotation Yrotation Zrotation
					End Site
					{
						OFFSET 0.000000 -5.044995 -1.291870
					}
				}
			}
		}
	}
	JOINT LeftHip
	{
		OFFSET 9.469263 -0.004642 0.045487
		CHANNELS 3 Xrotation Yrotation Zrotation
		JOINT LeftKnee
		{
			OFFSET 0.000000 -0.002666 -40.478676
			CHANNELS 3 Xrotation Yrotation Zrotation
			JOINT LeftAnkle
			{
				OFFSET 0.000000 -0.049110 -35.224068
				CHANNELS 3 Xrotation Yrotation Zrotation
				JOINT LeftToe
				{
					OFFSET 0.000000 -12.539530 -6.151390
					CHANNELS 3 Xrotation Yrotation Zrotation
					End Site
					{
						OFFSET 0.000000 -5.044995 -1.291870
					}
				}
			}
		}
	}
}
MOTION
Frames: 15
Frame Time: 0.016667
-10.729814 -6.670648 83.063667 1.816264 5.256924 -108.269843 3.154945 0.145231 0.651240 1.400892 0.062962 0.278365 1.400892 0.062962 0.278364 1.050697 0.046584 0.208917 16.322933 -0.959709 -2.072685 -5.873693 -1.007865 -4.118617 -22.514983 -3.937681 -5.552664 -59.921939 -17.992118 0.540255 -1.154802 -24.857162 74.812920 -21.843534 23.523315 28.702357 -17.453271 4.506536 0.145692 -58.513309 19.430080 -1.922225 -7.959573 13.487520 -65.205828 -20.294389 -18.867742 -26.246610 7.012718 0.539358 -3.485071 2.711596 -1.484238 -6.651774 -3.782609 0.619867 1.981389 0.001090 -0.018459 0.004223 7.669839 0.717368 0.341482 1.503831 -0.711311 1.711562 -3.767013 0.244474 1.122358 0.026406 -0.018078 0.000397 
-10.722998 -6.673677 83.062065 1.830576 5.278465 -108.303434 3.211509 0.150332 0.673066 1.425317 0.063760 0.289689 1.425317 0.063760 0.289688 1.069018 0.047144 0.217420 16.264921 -0.976183 -2.089534 -5.981711 -1.030063 -4.155715 -22.714424 -4.048244 -5.454604 -59.911783 -17.781627 0.737163 -0.861667 -23.249916 74.440695 -21.607792 24.930950 30.283488 -17.622457 4.422834 0.424820 -58.533499 19.515234 -1.967679 -6.359450 9.464139 -64.966847 -24.369859 -17.740788 -26.955094 7.027848 0.533765 -3.496831 2.713246 -1.478252 -6.642229 -3.776193 0.610928 2.020402 0.005345 -0.009517 0.004602 7.679832 0.715173 0.305396 1.535538 -0.711197 1.740862 -3.787971 0.240481 1.141033 0.030061 -0.011781 -0.001136 
-10.712076 -6.676265 83.061836 1.855733 5.320021 -108.345645 3.275483 0.170116 0.702083 1.453656 0.070855 0.304810 1.453656 0.070855 0.304813 1.090278 0.052416 0.228778 16.202325 -1.028088 -2.104869 -6.099545 -1.117146 -4.202831 -22.628009 -4.066079 -5.479618 -60.008819 -17.820278 0.607769 -0.811831 -27.493919 74.933548 -23.650220 22.059269 30.532865 -17.725968 4.666088 0.165411 -58.232062 19.259252 -1.842776 -6.663462 13.130587 -65.761792 -31.918587 -11.453967 -26.217017 7.052970 0.526664 -3.553831 2.732283 -1.468967 -6.576358 -3.770318 0.602522 2.046895 0.006577 -0.004195 0.005894 7.695184 0.711997 0.267529 1.596099 -0.708944 1.767185 -3.817702 0.224373 1.197268 0.030643 -0.000199 -0.003868 
-10.698147 -6.682381 83.060959 1.877836 5.359338 -108.382316 3.311524 0.193235 0.736382 1.469904 0.080071 0.322440 1.469904 0.080071 0.322442 1.102471 0.059278 0.242028 16.158745 -1.083109 -2.128077 -6.182111 -1.207628 -4.265319 -22.237491 -4.015817 -5.534405 -59.763356 -18.153666 0.413983 -1.765831 -34.511955 75.902506 -25.323329 16.595294 27.681133 -17.500746 4.823067 -0.202266 -57.837482 19.247876 -1.635355 -8.533552 22.354343 -67.076556 -36.091146 -5.653200 -22.921941 7.070616 0.523566 -3.643946 2.759324 -1.466478 -6.486553 -3.771237 0.603352 2.070183 0.010695 -0.003164 0.006485 7.707535 0.708549 0.246562 1.650965 -0.704302 1.771420 -3.843930 0.205265 1.243997 0.032536 0.010681 -0.006769 
-10.682578 -6.690622 83.058731 1.890111 5.378334 -108.406167 3.329307 0.208191 0.764656 1.477512 0.086707 0.336190 1.477514 0.086707 0.336195 1.108183 0.064217 0.252356 16.132750 -1.113922 -2.153016 -6.231169 -1.253942 -4.322088 -21.941721 -4.009459 -5.491150 -59.345738 -18.531618 0.364626 -3.152677 -40.916603 76.474855 -27.089693 10.673216 23.083282 -17.191231 4.734701 -0.264516 -57.775320 19.831823 -1.486065 -10.634649 33.376112 -68.079514 -38.897832 -2.322549 -19.167232 7.060174 0.527797 -3.715051 2.797021 -1.469286 -6.420152 -3.779129 0.607623 2.101867 0.016338 -0.006455 0.006121 7.701099 0.705022 0.255849 1.690649 -0.694573 1.769151 -3.861649 0.187406 1.248064 0.036440 0.016133 -0.007281 
-10.668744 -6.701546 83.058067 1.895204 5.375956 -108.418373 3.326459 0.217703 0.769604 1.475745 0.090813 0.338255 1.475746 0.090813 0.338252 1.106860 0.067293 0.253909 16.130479 -1.120168 -2.161751 -6.235504 -1.262100 -4.340280 -21.928027 -4.092038 -5.362870 -59.534579 -18.625099 0.530155 -3.909448 -44.004330 76.084523 -29.284392 6.127529 19.508822 -17.009130 4.663028 -0.269418 -58.408103 20.384701 -1.422156 -11.679904 41.576533 -68.448509 -40.764789 -2.616229 -17.818864 7.032309 0.530921 -3.725402 2.827420 -1.477758 -6.401772 -3.783044 0.614734 2.093809 0.018385 -0.008614 0.005537 7.684036 0.701517 0.288929 1.703701 -0.684759 1.768415 -3.864321 0.174501 1.230680 0.039323 0.016068 -0.006774 
-10.656962 -6.710181 83.061729 1.893497 5.358187 -108.426801 3.316034 0.238165 0.764981 1.471655 0.099955 0.334985 1.471656 0.099955 0.334986 1.103796 0.074160 0.251486 16.143500 -1.131205 -2.157494 -6.211793 -1.284145 -4.336368 -22.020373 -4.121369 -5.356984 -60.246250 -18.567531 0.538736 -3.191890 -42.003952 75.608637 -30.495312 6.421974 20.747794 -17.096122 4.727985 -0.398074 -59.346537 20.356383 -1.292121 -10.856319 41.507616 -68.415778 -37.278186 -6.169717 -20.631857 6.993940 0.534823 -3.672668 2.843641 -1.483961 -6.422004 -3.771127 0.616163 2.069934 0.011851 -0.007939 0.005856 7.670177 0.695339 0.343186 1.676348 -0.675387 1.746637 -3.838467 0.174633 1.195602 0.034371 0.008226 -0.005578 
-10.648698 -6.713154 83.068115 1.886809 5.348687 -108.430981 3.311228 0.244065 0.735558 1.470304 0.103581 0.320509 1.470304 0.103581 0.320507 1.102782 0.076916 0.240629 16.160016 -1.114302 -2.141644 -6.180724 -1.259594 -4.301250 -22.020467 -4.016757 -5.511934 -60.786348 -18.439405 0.264703 -1.544038 -35.767997 75.570115 -28.363436 12.157354 24.605973 -17.481036 4.876074 -0.501652 -59.486631 19.939183 -1.290804 -9.709890 33.783939 -67.570679 -30.202349 -11.082107 -24.387409 6.975075 0.536686 -3.587472 2.840079 -1.483061 -6.473580 -3.749984 0.614782 2.042080 0.001768 -0.005025 0.005718 7.669851 0.694687 0.384614 1.638721 -0.669136 1.742770 -3.803010 0.190111 1.166712 0.023870 -0.006310 -0.003352 
-10.641927 -6.712867 83.072220 1.880983 5.348289 -108.434915 3.312417 0.228806 0.695213 1.471435 0.097863 0.301256 1.471435 0.097863 0.301256 1.103625 0.072672 0.226179 16.164537 -1.060189 -2.127370 -6.170533 -1.166338 -4.255723 -22.187745 -3.983764 -5.547999 -60.541929 -18.243584 0.309310 -0.814070 -28.294820 75.036684 -24.122937 20.088444 27.617518 -17.642327 4.795662 -0.342661 -58.878211 19.734858 -1.605395 -8.819667 22.690274 -66.226518 -22.800049 -16.235764 -26.971138 6.970967 0.540130 -3.500945 2.827690 -1.482552 -6.549534 -3.732078 0.610479 2.040185 -0.002527 -0.001180 0.006097 7.679410 0.692709 0.397590 1.605004 -0.661473 1.740013 -3.776943 0.206226 1.161305 0.018628 -0.017761 -0.002251 
-10.632536 -6.714185 83.071404 1.886109 5.350668 -108.463192 3.330332 0.212413 0.677749 1.479263 0.090313 0.292961 1.479263 0.090313 0.292958 1.109492 0.067027 0.219935 16.141861 -1.011637 -2.123804 -6.210966 -1.078503 -4.231933 -22.606553 -4.071381 -5.439656 -59.810532 -18.063813 0.768146 -0.963979 -22.682051 74.205976 -20.939731 24.650252 29.278849 -17.627945 4.551370 0.036008 -58.680054 19.706235 -1.890504 -7.294334 12.819958 -65.103772 -19.492371 -19.072680 -27.869356 6.965265 0.539429 -3.436935 2.823999 -1.485949 -6.598970 -3.720985 0.604784 2.049717 -0.000575 0.005167 0.005814 7.687019 0.689100 0.389951 1.591029 -0.657431 1.756834 -3.771290 0.211326 1.175117 0.022384 -0.019245 -0.001499 
-10.617762 -6.719380 83.068680 1.906393 5.369344 -108.513278 3.378731 0.216224 0.692312 1.500448 0.090198 0.300825 1.500448 0.090198 0.300828 1.125381 0.066910 0.225841 16.089706 -1.012771 -2.131666 -6.307717 -1.076101 -4.247134 -22.799813 -4.162766 -5.394510 -59.667371 -17.965964 0.907020 -0.618362 -22.731334 74.185451 -21.246939 25.256236 30.486782 -17.668135 4.524732 0.197333 -58.505515 19.641662 -1.940965 -6.177824 9.017375 -65.082134 -26.415463 -15.437061 -28.011816 6.965301 0.534941 -3.426673 2.837094 -1.482526 -6.586794 -3.712846 0.589882 2.091083 0.004199 0.012720 0.006848 7.693611 0.686902 0.373428 1.617618 -0.663749 1.789810 -3.785917 0.208005 1.202510 0.027486 -0.011132 -0.003736 
-10.598402 -6.727643 83.066757 1.933053 5.400013 -108.566752 3.435766 0.240382 0.720974 1.525795 0.098896 0.316056 1.525795 0.098896 0.316060 1.144397 0.073384 0.237291 16.020055 -1.060934 -2.145383 -6.438584 -1.156630 -4.290169 -22.551574 -4.119126 -5.494307 -59.856896 -18.110269 0.668029 -0.639910 -27.979030 74.970643 -23.337348 21.793872 29.992283 -17.681290 4.775499 -0.104720 -58.220983 19.300223 -1.769912 -6.653052 13.699006 -66.212079 -33.937957 -8.178019 -25.597654 6.970912 0.527664 -3.479691 2.860777 -1.478224 -6.521857 -3.706561 0.578134 2.131736 0.008481 0.018435 0.006978 7.696573 0.686426 0.342567 1.671624 -0.671732 1.823355 -3.808873 0.195812 1.250262 0.030485 0.000885 -0.005513 
-10.575759 -6.737602 83.064484 1.954093 5.424304 -108.613374 3.474928 0.265766 0.763824 1.543306 0.109156 0.337089 1.543306 0.109156 0.337091 1.157539 0.081016 0.253098 15.954671 -1.122270 -2.172520 -6.561859 -1.256371 -4.362457 -22.091246 -3.987301 -5.613552 -59.652502 -18.484442 0.411046 -1.601038 -35.477082 76.095698 -25.118799 16.191930 26.597295 -17.530669 4.879290 -0.377833 -57.899978 19.320822 -1.486081 -8.303622 24.096120 -67.889669 -38.453583 -2.734837 -20.756342 6.965605 0.528663 -3.561318 2.888671 -1.484215 -6.440432 -3.703203 0.576213 2.163920 0.014005 0.019484 0.006398 7.691105 0.683694 0.334065 1.719567 -0.670953 1.830119 -3.826625 0.178259 1.295771 0.033909 0.010910 -0.006191 
-10.553666 -6.749185 83.062004 1.962016 5.432328 -108.636529 3.492922 0.284912 0.805628 1.550657 0.117913 0.357035 1.550657 0.117913 0.357041 1.163062 0.087530 0.268081 15.909701 -1.165126 -2.208527 -6.646482 -1.319865 -4.444050 -21.784738 -3.970368 -5.567959 -59.263359 -18.763766 0.385591 -3.063924 -41.881586 76.586071 -27.117465 9.960274 21.879063 -17.296457 4.734205 -0.342048 -57.877548 19.940650 -1.316094 -10.198301 35.974504 -68.910837 -40.934287 0.455228 -15.989778 6.942385 0.536512 -3.642149 2.918944 -1.491174 -6.372315 -3.705593 0.578652 2.211545 0.020660 0.014985 0.005705 7.673811 0.684003 0.356427 1.745494 -0.667084 1.820500 -3.831756 0.163761 1.303775 0.037779 0.015300 -0.006206 
-10.534309 -6.762230 83.062103 1.965771 5.418603 -108.638626 3.493649 0.294287 0.824784 1.551424 0.123054 0.365606 1.551424 0.123055 0.365608 1.163642 0.091364 0.274520 15.892266 -1.178061 -2.232432 -6.679026 -1.334163 -4.492464 -21.751625 -4.071862 -5.420384 -59.485135 -18.748434 0.579240 -3.960303 -44.868032 76.103812 -29.613163 5.273470 18.507395 -17.138526 4.670993 -0.362563 -58.455313 20.420727 -1.294114 -11.278153 43.987108 -69.036642 -42.484832 0.800727 -13.958113 6.899800 0.532895 -3.658496 2.943450 -1.495292 -6.364719 -3.691042 0.583086 2.212493 0.011744 0.010681 0.003995 7.648118 0.679819 0.401665 1.744981 -0.660631 1.803181 -3.810176 0.153811 1.279758 0.027194 0.012740 -0.004162 
